<?xml version="1.0" encoding="UTF-8"?>
<svg width="128px" height="128px" viewBox="0 0 128 128" version="1.1" xmlns="http://www.w3.org/2000/svg" xmlns:xlink="http://www.w3.org/1999/xlink">
    <!-- Generator: Sketch 56.2 (81672) - https://sketch.com -->
    <title>icon-stellar-network</title>
    <desc>Created with Sketch.</desc>
    <g id="icon-stellar-network" stroke="none" stroke-width="1" fill="none" fill-rule="evenodd">
        <path d="M51.2992857,14.7142857 L21.1428571,14.7142857 C17.5985714,14.7142857 14.7142857,17.5985714 14.7142857,21.1428571 C14.7142857,21.4214851 14.7142857,28.5643422 14.7142857,42.5714286 C14.7142857,44 15.4285714,44.7142857 16.8571429,44.7142857 C18.2857143,44.7142857 19,44 19,42.5714286 C19,28.5643422 19,21.4214851 19,21.1428571 C19,19.9621429 19.96,19 21.1428571,19 L51.2671429,19 C51.295,17.5792857 51.3871429,16.1371429 51.2992857,14.7142857 Z M106.857143,19 C108.04,19 109,19.9621429 109,21.1428571 L109,51.1492857 C110.429286,51.0785714 111.858571,50.9821429 113.285714,50.8471429 L113.285714,21.1428571 C113.285714,17.5985714 110.401429,14.7142857 106.857143,14.7142857 C106.458473,14.7142857 99.315616,14.7142857 85.4285714,14.7142857 C84,14.7142857 83.2857143,15.4285714 83.2857143,16.8571429 C83.2857143,18.2857143 84,19 85.4285714,19 C99.3665062,19 106.509363,19 106.857143,19 Z M111.142857,83.2857143 C109.714286,83.2857143 109,84 109,85.4285714 C109,99.2826725 109,106.42553 109,106.857143 C109,108.04 108.04,109 106.857143,109 L76.975,109 C77.08,110.420714 77.0521429,111.858571 77.0328571,113.285714 L106.857143,113.285714 C110.401429,113.285714 113.285714,110.401429 113.285714,106.857143 C113.285714,106.500334 113.285714,99.3574765 113.285714,85.4285714 C113.285714,84 112.571429,83.2857143 111.142857,83.2857143 Z M21.1428571,109 C19.96,109 19,108.04 19,106.857143 L19,77.2814286 C17.5685714,77.2771429 16.1392857,77.2278571 14.7142857,77.0971429 L14.7142857,106.857143 C14.7142857,110.401429 17.5985714,113.285714 21.1428571,113.285714 C21.5275953,113.285714 28.6704524,113.285714 42.5714286,113.285714 C44,113.285714 44.7142857,112.571429 44.7142857,111.142857 C44.7142857,109.714286 44,109 42.5714286,109 C28.6954153,109 21.5525582,109 21.1428571,109 Z" id="Shape" fill="#FFFFFF" fill-rule="nonzero" transform="translate(64.000000, 64.000000) scale(-1, 1) translate(-64.000000, -64.000000) "></path>
        <path d="M74.7142857,29.7142857 L53.2857143,29.7142857 C50.9221429,29.7142857 49,27.7921429 49,25.4285714 L49,8.28571429 C49,5.92214286 50.9221429,4 53.2857143,4 L74.7142857,4 C77.0778571,4 79,5.92214286 79,8.28571429 L79,25.4285714 C79,27.7921429 77.0778571,29.7142857 74.7142857,29.7142857 Z M53.2857143,8.28571429 L53.2857143,25.4285714 L74.7164286,25.4285714 L74.7142857,8.28571429 L53.2857143,8.28571429 Z M74.7142857,124 L53.2857143,124 C50.9221429,124 49,122.077857 49,119.714286 L49,102.571429 C49,100.207857 50.9221429,98.2857143 53.2857143,98.2857143 L74.7142857,98.2857143 C77.0778571,98.2857143 79,100.207857 79,102.571429 L79,119.714286 C79,122.077857 77.0778571,124 74.7142857,124 Z M53.2857143,102.571429 L53.2857143,119.714286 L74.7185714,119.714286 L74.7142857,102.571429 L53.2857143,102.571429 Z M25.4285714,79 L8.28571429,79 C5.92214286,79 4,77.0778571 4,74.7142857 L4,53.2857143 C4,50.9221429 5.92214286,49 8.28571429,49 L25.4285714,49 C27.7921429,49 29.7142857,50.9221429 29.7142857,53.2857143 L29.7142857,74.7142857 C29.7142857,77.0778571 27.7921429,79 25.4285714,79 Z M25.4285714,53.2835714 L8.28571429,53.2857143 L8.28571429,74.7142857 L25.4285714,74.7142857 L25.4285714,53.2835714 Z M119.714286,79 L102.571429,79 C100.207857,79 98.2857143,77.0778571 98.2857143,74.7142857 L98.2857143,53.2857143 C98.2857143,50.9221429 100.207857,49 102.571429,49 L119.714286,49 C122.077857,49 124,50.9221429 124,53.2857143 L124,74.7142857 C124,77.0778571 122.077857,79 119.714286,79 Z M119.714286,53.2835714 L102.571429,53.2857143 L102.571429,74.7142857 L119.714286,74.7142857 L119.714286,53.2835714 Z" id="Shape" fill="#FFFFFF" fill-rule="nonzero" transform="translate(64.000000, 64.000000) scale(-1, 1) translate(-64.000000, -64.000000) "></path>
    </g>
</svg>