<svg xmlns="http://www.w3.org/2000/svg" width="128" height="128" viewBox="0 0 128 128">
  <g fill="#4A4A49" fill-rule="nonzero">
    <path d="M118.38 40h-1.88v-1.88a5.52 5.52 0 0 0-5.63-5.62H109v-1.88a5.52 5.52 0 0 0-5.63-5.62H9.63A5.52 5.52 0 0 0 4 30.63v52.5a5.52 5.52 0 0 0 5.63 5.62h1.87v1.88a5.52 5.52 0 0 0 5.63 5.62H19v1.88a5.52 5.52 0 0 0 5.63 5.62h93.75a5.52 5.52 0 0 0 5.62-5.63v-52.5a5.52 5.52 0 0 0-5.63-5.62zM9.63 85c-1.13 0-1.88-.75-1.88-1.88v-52.5c0-1.12.75-1.87 1.88-1.87h93.75c1.12 0 1.87.75 1.87 1.88v52.5c0 1.12-.75 1.87-1.88 1.87H9.63zm7.5 7.5c-1.13 0-1.88-.75-1.88-1.88v-1.87h88.13a5.52 5.52 0 0 0 5.62-5.63V36.26h1.88c1.12 0 1.87.75 1.87 1.88v52.5c0 1.12-.75 1.87-1.88 1.87H17.13zm103.12 5.63c0 1.12-.75 1.87-1.88 1.87H24.63c-1.12 0-1.87-.75-1.87-1.88v-1.87h88.13a5.52 5.52 0 0 0 5.62-5.63V43.76h1.88c1.12 0 1.87.75 1.87 1.88v52.5z"/>
    <path d="M13.38 38.13h9.37c1.13 0 1.88-.76 1.88-1.88 0-1.13-.75-1.88-1.88-1.88h-9.38c-1.12 0-1.87.76-1.87 1.88 0 1.13.75 1.88 1.88 1.88zm9.37 37.5h-9.38c-1.12 0-1.87.75-1.87 1.87 0 1.13.75 1.88 1.88 1.88h9.37c1.13 0 1.88-.75 1.88-1.88s-.75-1.88-1.88-1.88zm76.88 0h-9.38c-1.13 0-1.88.75-1.88 1.87 0 1.13.75 1.88 1.88 1.88h9.38c1.12 0 1.87-.75 1.87-1.88s-.75-1.88-1.88-1.88zm0-41.25h-9.38c-1.13 0-1.88.74-1.88 1.87 0 1.13.75 1.88 1.88 1.88h9.38c1.12 0 1.87-.76 1.87-1.88 0-1.13-.75-1.88-1.88-1.88zM64 38.3v-3.93c0-1.13-.75-1.88-1.88-1.88-1.12 0-1.87.75-1.87 1.88v2.43a12.09 12.09 0 0 0-3.75-.56c-1.31 0-2.63.19-3.75.56v-2.44c0-1.12-.75-1.87-1.88-1.87-1.12 0-1.87.75-1.87 1.88V38.31c-5.63 3.37-9.38 10.3-9.38 18.55 0 8.26 3.94 15.2 9.38 18.57v3.94c0 1.12.75 1.87 1.88 1.87 1.12 0 1.87-.75 1.87-1.88v-2.43c1.13.37 2.44.56 3.75.56s2.63-.19 3.75-.56v2.44c0 1.12.75 1.87 1.88 1.87 1.12 0 1.87-.75 1.87-1.88v-3.75-.18c5.63-3.38 9.38-10.31 9.38-18.56 0-8.26-3.94-15.2-9.38-18.57zm-7.5 35.81c-7.31 0-13.31-7.68-13.31-17.25 0-9.56 6-17.24 13.31-17.24 7.31 0 13.31 7.68 13.31 17.24 0 9.57-6 17.26-13.31 17.26zm41.25-15.37c0-4.13-3.38-7.5-7.5-7.5a7.52 7.52 0 0 0-7.5 7.5c0 4.13 3.38 7.5 7.5 7.5 4.13 0 7.5-3.38 7.5-7.5zm-11.63 0a4.16 4.16 0 0 1 4.13-4.13 4.16 4.16 0 0 1 4.13 4.13 4.16 4.16 0 0 1-4.13 4.13 4.16 4.16 0 0 1-4.13-4.13zm-63.37-7.5a7.52 7.52 0 0 0-7.5 7.5c0 4.13 3.38 7.5 7.5 7.5 4.13 0 7.5-3.38 7.5-7.5 0-4.13-3.38-7.5-7.5-7.5zm0 11.63a4.16 4.16 0 0 1-4.13-4.13 4.16 4.16 0 0 1 4.13-4.13 4.16 4.16 0 0 1 4.13 4.13 4.16 4.16 0 0 1-4.13 4.13z"/>
  </g>
</svg>
