<svg xmlns="http://www.w3.org/2000/svg" width="128" height="128" viewBox="0 0 128 128">
  <g fill="#4A4A49" fill-rule="nonzero">
    <path d="M78.3 41.2H70a2 2 0 1 0 0 4.2h8.3a2 2 0 1 0 0-4.2zm-45.5 4.2h29a2 2 0 1 0 0-4.2h-29a2 2 0 1 0 0 4.2zm0 8.3H70a2 2 0 1 0 0-4.2H32.8a2 2 0 1 0 0 4.2zm20.6 20.6a2 2 0 1 0 0-4H32.8a2 2 0 1 0 0 4h20.6zm-20.6-8.2H74a2 2 0 1 0 0-4.2H32.8a2 2 0 1 0 0 4.2z"/>
    <path d="M111.4 16.4H101v-6.2c0-3.4-2.8-6.2-6.2-6.2H38.3c-2.8 0-5.4 1-7.4 3L13 25c-2 1.9-3 4.5-3 7.3v73c0 3.5 2.8 6.3 6.2 6.3h10.4v6.2c0 3.4 2.7 6.2 6.2 6.2h78.6c3.4 0 6.2-2.8 6.2-6.2V22.6c0-3.4-2.8-6.2-6.2-6.2zM16 28l17.9-18 1-.7v17.6c0 1.1-1 2-2.1 2H15.2l.8-1zm.2 79.5a2 2 0 0 1-2-2V33h18.6c3.4 0 6.2-2.8 6.2-6.2V8h55.8c1.2 0 2.1 1 2.1 2.1v95.2c0 1.1-1 2-2 2H16.1zm97.2 10.4c0 1.1-.9 2-2 2H32.8a2 2 0 0 1-2.1-2v-6.2h64.1c3.4 0 6.2-2.8 6.2-6.2V20.6h10.4c1.1 0 2 .9 2 2v95.2z"/>
  </g>
</svg>
