<svg xmlns="http://www.w3.org/2000/svg" width="128" height="128" viewBox="0 0 128 128">
  <g fill="#4A4A49" fill-rule="nonzero">
    <path d="M118.2 27H9.8C6.6 27 4 29.06 4 31.6v64.35c0 2.54 2.6 4.6 5.8 4.6h108.4c3.2 0 5.8-2.06 5.8-4.6V31.6c0-2.54-2.6-4.6-5.8-4.6zm1.93 68.18c0 .83-.87 1.5-1.94 1.5H9.81c-1.07 0-1.94-.67-1.94-1.5V32.37c0-.83.87-1.5 1.94-1.5h108.38c1.07 0 1.94.67 1.94 1.5v62.81z"/>
    <path d="M64 85.06a1.93 1.93 0 0 0 1.74-2.77 25.59 25.59 0 0 0-14.3-13.24 16.86 16.86 0 0 0 2.88-9.15v-3.87c0-7.47-6.07-13.55-13.55-13.55a13.56 13.56 0 0 0-13.54 13.55v3.87c0 3.13 1.06 6.41 2.88 9.15a25.58 25.58 0 0 0-14.3 13.24 1.94 1.94 0 1 0 3.48 1.67c2.87-5.98 7.83-10.18 13.57-11.75 2.2 1.93 4.9 3.18 7.91 3.18 3.02 0 5.73-1.25 7.92-3.18 5.74 1.57 10.7 5.77 13.56 11.76.34.69 1.03 1.1 1.75 1.1zM50.45 59.9c0 5.26-4.31 11.62-9.68 11.62-5.36 0-9.67-6.36-9.67-11.62v-3.87a9.69 9.69 0 0 1 19.35 0v3.87zm21.3-5.8H91.1a1.94 1.94 0 0 0 0-3.87H71.74a1.94 1.94 0 0 0 0 3.87zm23.22 19.35H71.74a1.94 1.94 0 0 0 0 3.87h23.23a1.94 1.94 0 0 0 0-3.87zm11.61-23.22h-7.74a1.94 1.94 0 0 0 0 3.87h7.74a1.94 1.94 0 0 0 0-3.87zm0 11.6H71.74a1.94 1.94 0 0 0 0 3.88h34.84a1.94 1.94 0 0 0 0-3.87z"/>
  </g>
</svg>
