<svg xmlns="http://www.w3.org/2000/svg" width="128" height="128" viewBox="0 0 128 128">
  <g fill="#4A4A49" fill-rule="nonzero">
    <path d="M76.7 14.7h30.2c3.5 0 6.4 2.9 6.4 6.4v21.5c0 1.4-.7 2.1-2.2 2.1-1.4 0-2.1-.7-2.1-2.1V21c0-1.1-1-2.1-2.1-2.1H76.7v-4.3zM21.1 19C20 19 19 20 19 21.1v30c-1.4 0-2.9-.1-4.3-.3V21.1c0-3.5 2.9-6.4 6.4-6.4h21.5c1.4 0 2.1.7 2.1 2.2 0 1.4-.7 2.1-2.1 2.1H21zM17 83.3c1.4 0 2.1.7 2.1 2.1V107c0 1.1 1 2.1 2.1 2.1h30c-.2 1.4-.2 2.9-.1 4.3H21a6.4 6.4 0 0 1-6.4-6.4V85.4c0-1.4.7-2.1 2.2-2.1zm90 25.7c1.1 0 2.1-1 2.1-2.1V77.3c1.4 0 2.9 0 4.3-.2v29.8c0 3.5-2.9 6.4-6.4 6.4H85.4c-1.4 0-2.1-.7-2.1-2.2 0-1.4.7-2.1 2.1-2.1H107z"/>
    <path d="M53.3 29.7h21.4c2.4 0 4.3-2 4.3-4.3V8.3C79 5.9 77 4 74.7 4H53.3C50.9 4 49 6 49 8.3v17.1c0 2.4 2 4.3 4.3 4.3zM74.7 8.3v17.1H53.3V8.3h21.4zM53.3 124h21.4c2.4 0 4.3-2 4.3-4.3v-17.1c0-2.4-2-4.3-4.3-4.3H53.3c-2.4 0-4.3 2-4.3 4.3v17.1c0 2.4 2 4.3 4.3 4.3zm21.4-21.4v17.1H53.3v-17.1h21.4zM102.6 79h17.1c2.4 0 4.3-2 4.3-4.3V53.3c0-2.4-2-4.3-4.3-4.3h-17.1c-2.4 0-4.3 2-4.3 4.3v21.4c0 2.4 2 4.3 4.3 4.3zm0-25.7h17.1v21.4h-17.1V53.3zM8.3 79h17.1c2.4 0 4.3-2 4.3-4.3V53.3c0-2.4-2-4.3-4.3-4.3H8.3C5.9 49 4 51 4 53.3v21.4C4 77.1 6 79 8.3 79zm0-25.7h17.1v21.4H8.3V53.3z"/>
  </g>
</svg>
