<svg xmlns="http://www.w3.org/2000/svg" width="128" height="128" viewBox="0 0 128 128">
  <g fill="#4A4A49" fill-rule="nonzero">
    <path d="M78.22 87.19a2.03 2.03 0 1 0-2.88 2.87l20.13 20.14a2.03 2.03 0 0 0 2.88 0c.8-.8.8-2.08 0-2.88L78.22 87.2zm5.75-5.75a2.03 2.03 0 1 0-2.88 2.87l20.14 20.14a2.03 2.03 0 0 0 2.87 0c.8-.8.8-2.09 0-2.88L83.97 81.44zm-48.44 6.44a2.04 2.04 0 0 0-1.97-.53l-9.07 2.43c-.7.19-1.25.74-1.44 1.44l-2.43 9.07c-.19.7.01 1.45.53 1.96l6.64 6.65a2.03 2.03 0 0 0 1.97.52l9.07-2.43c.7-.19 1.25-.73 1.44-1.44l2.43-9.07c.19-.7-.01-1.45-.53-1.96l-6.64-6.64zm1.11 15.49l-6.8 1.82-4.99-4.98 1.83-6.8 6.8-1.83 4.98 4.98-1.82 6.8zm55.4-51.03a2.03 2.03 0 0 0 2.87 0c.8-.8.8-2.08 0-2.88L80.53 35.08a2.03 2.03 0 1 0-2.88 2.88l14.38 14.38z"/>
    <path d="M85.4 71.37a9.95 9.95 0 0 0-4.19-2.46l6.33-6.32c9.37 2.77 17.2 2.92 24.63-4.5 7.4-7.4 13.13-21.24 9.88-31.57a2.03 2.03 0 0 0-3.37-.83l-12.7 12.7c-.5.5-1.26.71-1.96.52l-2.22-.6a14.28 14.28 0 0 1-10.07-10.06l-.6-2.23c-.19-.7.02-1.45.53-1.96l12.71-12.72a2.03 2.03 0 0 0-.82-3.37c-10.35-3.3-24.22 2.42-31.65 9.85-7.42 7.43-7.27 15.26-4.5 24.63L56.2 53.67 32.54 30.02c-.01-.14 0-.28-.03-.42l-1.13-5.37a4.1 4.1 0 0 0-1.76-2.58l-14.35-9.32a4.09 4.09 0 0 0-5.1.53L6.76 16.3a4.1 4.1 0 0 0-.54 5.08l9.17 14.19c.58.89 1.47 1.51 2.5 1.75l5.56 1.28c.16.03.3.03.46.05l23.66 23.65-13.82 13.82a22.2 22.2 0 0 0-20.03 8.83 22.53 22.53 0 0 0 .35 27.3 22.49 22.49 0 0 0 17.55 8.5 22.4 22.4 0 0 0 15.83-6.56 22.17 22.17 0 0 0 6.43-17.94l8.94-8.93c.47 1.56 1.27 3.01 2.45 4.2l27.33 27.32a10.14 10.14 0 0 0 14.38 0l5.75-5.75a10.18 10.18 0 0 0 0-14.39L85.41 71.37zM18.8 33.35L9.63 19.16l3.43-3.42 14.35 9.32 1.13 5.38-4.18 4.18-5.56-1.27zm9.08 3.5l1.42-1.42 1.46-1.46 22.56 22.57-2.88 2.87-22.56-22.56zM50.3 94.06a2.03 2.03 0 0 0-.58 1.73 18.16 18.16 0 0 1-5.15 15.51 18.33 18.33 0 0 1-27.32-1.6 18.41 18.41 0 0 1-.3-22.3 18.15 18.15 0 0 1 17.24-7.14c.63.08 1.28-.13 1.73-.58l35.22-35.21c.53-.54.73-1.33.5-2.05-2.82-8.96-3.2-15.38 3.13-21.72 5.6-5.61 15.86-10.19 24.02-9.53L88.79 21.18a6.11 6.11 0 0 0-1.58 5.9l.6 2.22a18.36 18.36 0 0 0 12.94 12.94l2.22.6c2.1.56 4.36-.04 5.9-1.58l9.97-9.97c.63 8.13-3.96 18.34-9.54 23.92-6.34 6.34-12.76 5.95-21.72 3.13a2.04 2.04 0 0 0-2.05.5L50.3 94.07zm59.55 16.14l-5.76 5.75a6.11 6.11 0 0 1-8.63 0L68.15 88.63a6.05 6.05 0 0 1-1.68-4.98l11.09-11.08c1.82-.2 3.66.36 4.97 1.67l27.33 27.33a6.1 6.1 0 0 1 0 8.63z"/>
  </g>
</svg>
