<svg xmlns="http://www.w3.org/2000/svg" width="128" height="128" viewBox="0 0 128 128">
  <g fill="#FFF" fill-rule="nonzero">
    <path d="M118.4 40h-1.9v-1.9c0-3.2-2.4-5.6-5.6-5.6H109v-1.9c0-3.2-2.4-5.6-5.6-5.6H9.6A5.5 5.5 0 0 0 4 30.6v52.5c0 3.2 2.4 5.7 5.6 5.7h1.9v1.8c0 3.2 2.4 5.7 5.6 5.7H19V98c0 3.2 2.4 5.7 5.6 5.7h93.8c3.2 0 5.6-2.5 5.6-5.7V45.6c0-3.2-2.4-5.6-5.6-5.6zM9.6 85c-1.1 0-1.8-.8-1.8-1.9V30.6c0-1.1.7-1.9 1.8-1.9h93.8c1.1 0 1.8.8 1.8 2V83c0 1.2-.7 1.9-1.8 1.9H9.6zm7.5 7.5c-1.1 0-1.9-.8-1.9-1.9v-1.8h88.2c3.2 0 5.6-2.5 5.6-5.7V36.3h1.9c1.1 0 1.8.7 1.8 1.8v52.5c0 1.2-.7 1.9-1.8 1.9H17zm103.2 5.6c0 1.2-.8 1.9-2 1.9H24.7c-1.1 0-1.9-.8-1.9-1.9v-1.8H111c3.2 0 5.6-2.5 5.6-5.7V43.8h1.9c1.1 0 1.8.7 1.8 1.8v52.5z"/>
    <path d="M13.4 38.1h9.3c1.2 0 2-.7 2-1.9 0-1-.8-1.8-2-1.8h-9.3c-1.2 0-1.9.7-1.9 1.9 0 1 .8 1.8 1.9 1.8zm9.3 37.5h-9.3c-1.2 0-1.9.8-1.9 1.9 0 1.1.8 1.9 1.9 1.9h9.3c1.2 0 2-.8 2-1.9 0-1.1-.8-1.9-2-1.9zm77 0h-9.5c-1 0-1.8.8-1.8 1.9 0 1.1.7 1.9 1.8 1.9h9.4c1.2 0 1.9-.8 1.9-1.9 0-1.1-.8-1.9-1.9-1.9zm0-41.2h-9.5c-1 0-1.8.7-1.8 1.9 0 1 .7 1.8 1.8 1.8h9.4c1.2 0 1.9-.7 1.9-1.9 0-1-.8-1.8-1.9-1.8zm-35.7 4v-4c0-1.1-.8-1.9-1.9-1.9-1.1 0-1.9.8-1.9 1.9v2.4a12 12 0 0 0-3.7-.5 12 12 0 0 0-3.8.5v-2.4c0-1.1-.7-1.9-1.8-1.9s-1.9.8-1.9 1.9V38.3A21.2 21.2 0 0 0 39.6 57c0 8.2 4 15.2 9.4 18.5v4c0 1.1.8 1.8 1.9 1.8 1.1 0 1.9-.7 1.9-1.8v-2.5a12 12 0 0 0 7.5 0v2.5c0 1.1.7 1.8 1.8 1.8s1.9-.7 1.9-1.8v-3.8-.2A21.2 21.2 0 0 0 73.4 57c0-8.3-4-15.2-9.4-18.6zM56.5 74c-7.3 0-13.3-7.7-13.3-17.2 0-9.6 6-17.3 13.3-17.3 7.3 0 13.3 7.7 13.3 17.3 0 9.5-6 17.2-13.3 17.2zm41.3-15.3c0-4.2-3.4-7.5-7.5-7.5a7.5 7.5 0 0 0-7.5 7.5c0 4 3.3 7.5 7.5 7.5 4 0 7.5-3.4 7.5-7.5zm-11.7 0c0-2.3 1.9-4.2 4.2-4.2 2.2 0 4 1.9 4 4.1 0 2.3-1.8 4.2-4 4.2a4.2 4.2 0 0 1-4.2-4.1zm-63.3-7.5a7.5 7.5 0 0 0-7.6 7.5c0 4 3.4 7.5 7.6 7.5 4 0 7.4-3.4 7.4-7.5 0-4.2-3.3-7.5-7.4-7.5zm0 11.6a4.2 4.2 0 0 1-4.2-4.1c0-2.3 1.9-4.2 4.1-4.2 2.3 0 4.2 1.9 4.2 4.1 0 2.3-1.9 4.2-4.1 4.2z"/>
  </g>
</svg>
