<svg xmlns="http://www.w3.org/2000/svg" width="128" height="128" viewBox="0 0 128 128">
  <g fill="#FFF" fill-rule="nonzero">
    <path d="M118.2 27H9.8C6.6 27 4 29 4 31.6V96c0 2.5 2.6 4.5 5.8 4.5h108.4c3.2 0 5.8-2 5.8-4.5V31.6c0-2.5-2.6-4.6-5.8-4.6zm2 68.2c0 .8-1 1.5-2 1.5H9.8c-1 0-2-.7-2-1.5V32.4c0-.9 1-1.5 2-1.5h108.4c1 0 2 .6 2 1.5v62.8z"/>
    <path d="M64 85l.8-.1a2 2 0 0 0 1-2.6c-3.1-6.4-8.3-11-14.4-13.3 1.9-2.7 3-6 3-9.1V56a13.6 13.6 0 0 0-27.2 0V60c0 3.1 1 6.4 3 9.1C24 71.2 18.8 76 15.7 82.3a2 2 0 1 0 3.5 1.7c2.9-6 7.8-10.2 13.6-11.8a12 12 0 0 0 7.9 3.2c3 0 5.7-1.3 7.9-3.2A21.5 21.5 0 0 1 62.3 84a2 2 0 0 0 1.7 1zM50.5 60c0 5.3-4.4 11.6-9.7 11.6-5.4 0-9.7-6.3-9.7-11.6V56a9.7 9.7 0 0 1 19.4 0V60zm21.2-5.8h19.4a2 2 0 0 0 0-3.9H71.7a2 2 0 0 0 0 3.9zM95 73.5H71.7a2 2 0 0 0 0 3.8H95a2 2 0 0 0 0-3.8zm11.6-23.3h-7.8a2 2 0 0 0 0 3.9h7.8a2 2 0 0 0 0-3.9zm0 11.6H71.7a2 2 0 0 0 0 4h34.9a2 2 0 0 0 0-4z"/>
  </g>
</svg>
