<svg xmlns="http://www.w3.org/2000/svg" width="128" height="128" viewBox="0 0 128 128">
  <g fill="#4A4A49" fill-rule="nonzero">
    <path d="M107.1 4H44.3c-2.9 0-5.6 1.1-7.6 3.1L18 25.7c-2 2-3.1 4.7-3.1 7.6v84.3c0 3.5 2.9 6.4 6.4 6.4h85.7c3.6 0 6.5-2.9 6.5-6.4V10.4c0-3.5-3-6.4-6.5-6.4zm-86 24.7l18.6-18.5 1-.8v18.2c0 1.2-1 2.1-2.1 2.1H20.4l.8-1zm88.2 88.9c0 1.2-1 2.1-2.2 2.1H21.4c-1.2 0-2.1-1-2.1-2.1V34h19.3c3.5 0 6.4-2.9 6.4-6.4V8.3h62.1c1.2 0 2.2 1 2.2 2.1v107.2z"/>
    <path d="M83 47.5a2.1 2.1 0 1 0-3 3L91.2 62 79.9 73.2a2.1 2.1 0 1 0 3 3l12.9-12.8c.8-.9.8-2.2 0-3l-12.9-13zm-30 0c-.9-.9-2.2-.9-3 0L37 60.3c-.8.9-.8 2.2 0 3l13 13a2.1 2.1 0 0 0 3 0c.8-1 .8-2.3 0-3.1L41.5 61.9l11.3-11.4c.9-.8.9-2.2 0-3zM73.3 34c-1.2-.3-2.3.4-2.6 1.5L57.9 87.1a2.1 2.1 0 0 0 4.2 1l12.8-51.4c.3-1.2-.4-2.3-1.5-2.6z"/>
  </g>
</svg>
